<svg xmlns="http://www.w3.org/2000/svg" xmlns:xlink="http://www.w3.org/1999/xlink" viewBox="0,0,256,256" width="24px" height="24px" fill-rule="nonzero"><g fill="#ffffff" fill-rule="nonzero" stroke="none" stroke-width="1" stroke-linecap="butt" stroke-linejoin="miter" stroke-miterlimit="10" stroke-dasharray="" stroke-dashoffset="0" font-family="none" font-weight="none" font-size="none" text-anchor="none" style="mix-blend-mode: normal"><g transform="scale(10.66667,10.66667)"><path d="M12,2c-5.523,0 -10,4.477 -10,10c0,5.523 4.477,10 10,10c5.523,0 10,-4.477 10,-10c0,-5.523 -4.477,-10 -10,-10zM12,4c4.18146,0 7.61786,3.22705 7.96484,7.32031c-0.48338,-0.90719 -1.20763,-1.69664 -2.16211,-2.23047c-0.751,-0.421 -1.55819,-0.63869 -2.36719,-0.67969c-0.335,0.62 -0.8315,1.14023 -1.4375,1.49023c-0.598,0.345 -1.28916,0.52514 -2.03516,0.49414c-0.293,-0.012 -0.59124,-0.04433 -0.86524,-0.11133c-1.594,-0.452 -2.76409,-1.91053 -2.74609,-3.64453c0.0072,-0.74899 0.24309,-1.44914 0.62891,-2.04297c0.9326,-0.38176 1.95118,-0.5957 3.01953,-0.5957zM7.41992,5.45313c-0.53932,0.86961 -0.85692,1.88995 -0.8418,2.97852c0.011,0.861 0.2267,1.66572 0.5957,2.38672c0.705,-0.02 1.40181,0.15195 2.00781,0.50195c0.598,0.345 1.10127,0.85463 1.44727,1.51563c0.136,0.259 0.25208,0.51144 0.33008,0.77344c0.422,1.615 -0.2583,3.37347 -1.7793,4.23047c-0.648,0.36574 -1.36545,0.51306 -2.06836,0.47852c-1.88882,-1.46469 -3.11133,-3.74882 -3.11133,-6.31836c0,-2.70697 1.35613,-5.09856 3.41992,-6.54687zM16.67188,11.00391c0.61315,0.01609 1.23062,0.18308 1.79688,0.51758c0.64224,0.37929 1.12966,0.92894 1.45117,1.55664c-0.5295,3.90155 -3.87555,6.92188 -7.91992,6.92188c-1.20912,0 -2.35226,-0.27741 -3.38086,-0.75977c1.02317,0.03246 2.0643,-0.20233 3,-0.75977c0.74,-0.44 1.33148,-1.03094 1.77148,-1.71094c-0.37,-0.6 -0.57031,-1.29023 -0.57031,-1.99023c0,-0.69 0.18984,-1.37977 0.58984,-2.00977c0.157,-0.247 0.30528,-0.4642 0.48828,-0.6582c0.74125,-0.74125 1.75152,-1.13424 2.77344,-1.10742z"></path></g></g></svg>